<svg width="76" height="73" viewBox="0 0 76 73" fill="none" xmlns="http://www.w3.org/2000/svg">
<path d="M38 0C17.005 0 0 16.758 0 37.4262C0 53.9652 10.887 67.9905 25.9825 72.9354C27.8825 73.2877 28.5792 72.1293 28.5792 71.1358C28.5792 70.2472 28.5475 67.8922 28.5317 64.7723C17.9613 67.0289 15.732 59.7512 15.732 59.7512C14.003 55.4316 11.5045 54.2763 11.5045 54.2763C8.06233 51.9562 11.7705 52.0038 11.7705 52.0038C15.5863 52.264 17.5908 55.86 17.5908 55.86C20.9792 61.5825 26.486 59.9289 28.6583 58.9736C29.0003 56.5519 29.9788 54.9047 31.065 53.9684C22.6258 53.0321 13.756 49.8138 13.756 35.4743C13.756 31.3895 15.2285 28.0506 17.6668 25.4322C17.2393 24.4864 15.9568 20.6809 17.9993 15.5266C17.9993 15.5266 21.1818 14.5236 28.4493 19.3638C31.4893 18.5322 34.7193 18.1196 37.9493 18.1006C41.1793 18.1196 44.4093 18.5322 47.4493 19.3638C54.6693 14.5236 57.8518 15.5266 57.8518 15.5266C59.8943 20.6809 58.6118 24.4864 58.2318 25.4322C60.6543 28.0506 62.1268 31.3895 62.1268 35.4743C62.1268 49.8519 53.2443 53.0162 44.7893 53.9367C46.1193 55.0602 47.3543 57.3549 47.3543 60.862C47.3543 65.8704 47.3068 69.8949 47.3068 71.1105C47.3068 72.0912 47.9718 73.2623 49.9193 72.8878C65.1225 67.9747 76 53.9398 76 37.4262C76 16.758 58.9855 0 38 0V0Z" fill="white"/>
</svg>
