<svg width="198" height="92" viewBox="0 0 198 92" fill="none" xmlns="http://www.w3.org/2000/svg">
<g clip-path="url(#clip0)">
<path d="M102.187 43.1178L111.603 42.5113C111.818 44.0455 112.212 45.1873 112.856 46.008C113.895 47.2925 115.327 47.9347 117.225 47.9347C118.621 47.9347 119.731 47.6136 120.483 46.9356C121.199 46.4004 121.629 45.5441 121.629 44.6521C121.629 43.7958 121.235 42.9751 120.554 42.4399C119.838 41.7977 118.156 41.1554 115.506 40.5845C111.174 39.6212 108.059 38.3367 106.233 36.6954C104.407 35.1611 103.368 32.9133 103.44 30.5227C103.44 28.8814 103.941 27.2401 104.872 25.8842C105.946 24.35 107.414 23.1368 109.169 22.4589C111.066 21.6382 113.716 21.2101 117.046 21.2101C121.127 21.2101 124.242 21.9594 126.391 23.4936C128.539 24.9922 129.828 27.4185 130.222 30.7367L120.912 31.272C120.662 29.8447 120.161 28.81 119.337 28.1321C118.514 27.4542 117.439 27.133 116.043 27.133C114.897 27.133 114.038 27.3828 113.465 27.8466C112.928 28.2748 112.57 28.917 112.606 29.6307C112.606 30.1659 112.892 30.6654 113.322 30.9865C113.787 31.4147 114.897 31.8072 116.652 32.164C120.984 33.0917 124.063 34.0193 125.961 34.9827C127.859 35.9461 129.219 37.1235 130.043 38.5151C130.902 39.9423 131.332 41.5836 131.296 43.2606C131.296 45.2587 130.723 47.2568 129.577 48.9338C128.396 50.6821 126.749 52.0379 124.815 52.8586C122.774 53.7506 120.196 54.2145 117.117 54.2145C111.675 54.2145 107.915 53.1797 105.803 51.0746C103.69 48.9694 102.437 46.3291 102.187 43.1178ZM2.2557 53.6792V21.781H18.7617C21.8051 21.781 24.1682 22.0307 25.7794 22.5659C27.3548 23.0655 28.7512 24.1002 29.6821 25.4917C30.7204 27.026 31.2217 28.81 31.1859 30.6654C31.2933 33.8053 29.6821 36.8024 26.9251 38.3724C25.851 38.9789 24.6694 39.4071 23.4521 39.6212C24.3472 39.8709 25.2423 40.2991 26.03 40.7986C26.6387 41.2981 27.14 41.869 27.6054 42.4756C28.1425 43.0822 28.608 43.7601 29.0018 44.4737L33.7996 53.7149H22.557L17.2579 43.9028C16.5776 42.654 16.0047 41.8334 15.4676 41.4409C14.7515 40.9413 13.8922 40.6916 13.0329 40.6916H12.1736V53.6436H2.2557V53.6792ZM12.1736 34.6973H16.3627C17.2579 34.6259 18.1172 34.4832 18.9765 34.2691C19.621 34.1621 20.1939 33.8053 20.5877 33.2701C21.5544 31.9856 21.4112 30.1659 20.2297 29.0598C19.5852 28.5246 18.332 28.2391 16.5418 28.2391H12.1736V34.6973ZM0 81.0104L9.41664 80.4039C9.63146 81.9381 10.0253 83.0799 10.6698 83.9005C11.6723 85.185 13.1403 85.863 15.038 85.863C16.4344 85.863 17.5443 85.5418 18.2962 84.8639C19.0123 84.293 19.442 83.4724 19.442 82.5804C19.442 81.724 19.0481 80.9034 18.3678 80.3682C17.6517 79.7259 15.9689 79.0837 13.2835 78.5128C8.95117 77.5494 5.83617 76.2649 4.01013 74.6236C2.18409 73.0894 1.14575 70.8415 1.21736 68.4509C1.21736 66.8096 1.71863 65.1683 2.64955 63.8125C3.72369 62.2782 5.19168 61.0651 6.94611 60.3872C8.84376 59.5665 11.4933 59.1383 14.8231 59.1383C18.9049 59.1383 22.0199 59.8876 24.1682 61.4219C26.3165 62.9562 27.5696 65.3467 27.9635 68.665L18.6542 69.2002C18.4036 67.773 17.9024 66.7383 17.0788 66.0603C16.2911 65.3824 15.1812 65.0613 13.7848 65.097C12.6391 65.097 11.7797 65.3467 11.2069 65.8463C10.634 66.2744 10.3118 66.9167 10.3476 67.6303C10.3476 68.1655 10.634 68.665 11.0637 68.9861C11.5291 69.4143 12.6391 69.8068 14.3935 70.1636C18.7259 71.0913 21.8051 72.019 23.7027 72.9823C25.6004 73.9457 26.9609 75.1232 27.7844 76.5147C28.6438 77.9419 29.0734 79.5832 29.0734 81.2245C29.0734 83.2226 28.4647 85.185 27.3548 86.862C26.1732 88.6104 24.5262 89.9662 22.5928 90.7869C20.5519 91.6789 17.974 92.1427 14.8948 92.1427C9.45244 92.1427 5.69295 91.108 3.58047 89.0028C1.46799 86.862 0.286438 84.2217 0 81.0104H0Z" fill="white"/>
<path d="M47.6201 78.5129L56.2849 81.1176C55.8194 83.2941 54.8527 85.3635 53.5279 87.1832C52.3105 88.7888 50.6993 90.0377 48.8733 90.8583C47.0114 91.679 44.6483 92.1071 41.7839 92.1071C38.3109 92.1071 35.4465 91.6076 33.2624 90.6086C31.0425 89.6095 29.1449 87.8255 27.5337 85.2922C25.9225 82.7589 25.1348 79.5119 25.1348 75.5514C25.1348 70.2707 26.5311 66.2031 29.3597 63.3844C32.1883 60.5656 36.1626 59.1384 41.3185 59.1384C45.3644 59.1384 48.5152 59.9591 50.8425 61.5647C53.134 63.206 54.8527 65.7036 55.9984 69.0576L47.2621 70.9843C47.0472 70.235 46.725 69.4857 46.2953 68.8435C45.7583 68.0942 45.078 67.5233 44.2545 67.0952C43.431 66.667 42.5 66.4886 41.5691 66.4886C39.3134 66.4886 37.5948 67.3806 36.4132 69.2003C35.5181 70.5205 35.0527 72.6256 35.0527 75.4801C35.0527 79.0124 35.5897 81.4387 36.6639 82.7589C37.738 84.079 39.2418 84.7213 41.2111 84.7213C43.1087 84.7213 44.5409 84.1861 45.5076 83.1513C46.4744 82.0452 47.1905 80.511 47.6201 78.5129ZM67.8498 59.6736H77.7319V70.8416H88.5449V59.6736H98.4986V91.5719H88.5449V78.6556H77.7319V91.5719H67.8498V59.6736V59.6736Z" fill="white"/>
<path d="M97.1382 75.6228C97.1382 70.4135 98.6062 66.3459 101.506 63.4558C104.407 60.5657 108.488 59.1028 113.68 59.1028C119.015 59.1028 123.097 60.53 125.997 63.3844C128.897 66.2389 130.329 70.2351 130.329 75.373C130.329 79.1195 129.685 82.1523 128.432 84.5429C127.214 86.8978 125.316 88.8246 122.989 90.1091C120.59 91.4292 117.618 92.1072 114.074 92.1072C110.458 92.1072 107.486 91.5363 105.123 90.3945C102.688 89.1814 100.683 87.2903 99.3581 84.9711C97.8901 82.4735 97.1382 79.3693 97.1382 75.6228ZM107.02 75.6585C107.02 78.8697 107.629 81.189 108.811 82.6162C109.992 84.0077 111.639 84.7213 113.716 84.7213C115.828 84.7213 117.475 84.0434 118.657 82.6519C119.838 81.2603 120.411 78.7984 120.411 75.2303C120.411 72.2332 119.803 70.021 118.585 68.6651C117.368 67.2736 115.721 66.5957 113.644 66.5957C111.818 66.5243 110.064 67.3093 108.846 68.7008C107.629 70.0923 107.02 72.4116 107.02 75.6585V75.6585ZM140.462 75.6228C140.462 70.4135 141.93 66.3459 144.83 63.4558C147.73 60.5657 151.812 59.1028 157.004 59.1028C162.339 59.1028 166.456 60.53 169.32 63.3844C172.185 66.2389 173.653 70.2351 173.653 75.373C173.653 79.1195 173.008 82.1523 171.755 84.5429C170.538 86.8978 168.64 88.8246 166.313 90.1091C163.914 91.4292 160.942 92.1072 157.398 92.1072C153.781 92.1072 150.809 91.5363 148.446 90.3945C146.012 89.1814 144.007 87.2903 142.682 84.9711C141.214 82.4735 140.462 79.3693 140.462 75.6228V75.6228ZM150.344 75.6585C150.344 78.8697 150.953 81.189 152.134 82.6162C153.316 84.0077 154.963 84.7213 157.039 84.7213C159.152 84.7213 160.799 84.0434 161.981 82.6519C163.162 81.2603 163.735 78.7984 163.735 75.2303C163.735 72.2332 163.126 70.021 161.909 68.6651C160.692 67.2736 159.045 66.5957 156.968 66.5957C155.142 66.5243 153.352 67.3093 152.17 68.7008C150.953 70.0923 150.344 72.4116 150.344 75.6585V75.6585Z" fill="white"/>
<path d="M172.614 59.6736H182.497V83.7222H197.928V91.5719H172.579V59.6736H172.614Z" fill="white"/>
<path d="M161.722 57.8327C171.671 50.3613 174.739 37.6959 168.575 29.5439C162.41 21.3919 149.347 20.8402 139.398 28.3117C129.449 35.7831 126.381 48.4485 132.546 56.6005C138.71 64.7525 151.773 65.3042 161.722 57.8327Z" fill="white"/>
<path d="M107.172 39.0291L158.585 0.419698L194.162 47.4654L142.749 86.0747L107.172 39.0291Z" fill="white"/>
<path d="M161.722 57.8326C171.671 50.3612 174.739 37.6958 168.575 29.5438C162.41 21.3918 149.347 20.8401 139.398 28.3115C129.449 35.783 126.381 48.4484 132.546 56.6004C138.71 64.7524 151.773 65.3041 161.722 57.8326Z" fill="white"/>
<path d="M121.489 42.1704L157.49 15.1359L179.835 44.6859L143.834 71.7204L121.489 42.1704Z" fill="white"/>
<path d="M161.722 57.8326C171.671 50.3612 174.739 37.6958 168.575 29.5438C162.41 21.3918 149.347 20.8401 139.398 28.3115C129.449 35.783 126.381 48.4484 132.546 56.6004C138.71 64.7524 151.773 65.3041 161.722 57.8326Z" fill="white" stroke="black" stroke-width="4" stroke-miterlimit="10"/>
<path d="M121.489 42.1704L157.49 15.1359L179.835 44.6859L143.834 71.7204L121.489 42.1704Z" stroke="black" stroke-width="4" stroke-miterlimit="10"/>
<path d="M161.722 57.8326C171.671 50.3612 174.739 37.6958 168.575 29.5438C162.41 21.3918 149.347 20.8401 139.398 28.3115C129.449 35.783 126.381 48.4484 132.546 56.6004C138.71 64.7524 151.773 65.3041 161.722 57.8326Z" stroke="black" stroke-width="4" stroke-miterlimit="10"/>
<path d="M121.489 42.1704L157.49 15.1359L179.835 44.6859L143.834 71.7204L121.489 42.1704Z" fill="white"/>
<path d="M161.722 57.8326C171.671 50.3612 174.739 37.6958 168.575 29.5438C162.41 21.3918 149.347 20.8401 139.398 28.3115C129.449 35.783 126.381 48.4484 132.546 56.6004C138.71 64.7524 151.773 65.3041 161.722 57.8326Z" fill="white" stroke="black" stroke-width="4" stroke-miterlimit="10"/>
<path d="M121.489 42.1704L157.49 15.1359L179.835 44.6859L143.834 71.7204L121.489 42.1704Z" stroke="#1F2A3F" stroke-width="4" stroke-miterlimit="10"/>
<path d="M107.172 39.0291L158.585 0.419698L194.162 47.4654L142.749 86.0747L107.172 39.0291Z" stroke="#1F2A3F" stroke-width="4" stroke-miterlimit="10"/>
<path d="M161.722 57.8326C171.671 50.3612 174.739 37.6958 168.575 29.5438C162.41 21.3918 149.347 20.8401 139.398 28.3115C129.449 35.783 126.381 48.4484 132.546 56.6004C138.71 64.7524 151.773 65.3041 161.722 57.8326Z" stroke="#1F2A3F" stroke-width="4" stroke-miterlimit="10"/>
<path d="M140.498 40.7271L144.078 38.2295L148.482 44.4736C149.234 45.4726 149.807 46.543 150.237 47.7205C150.487 48.6125 150.416 49.5759 150.058 50.4322C149.592 51.5026 148.84 52.3946 147.838 53.0369C146.656 53.8575 145.654 54.3214 144.794 54.4641C143.971 54.6068 143.111 54.4641 142.324 54.1073C141.464 53.6791 140.713 53.0726 140.14 52.2876L143.219 49.4332C143.469 49.8256 143.792 50.1824 144.15 50.4679C144.4 50.6463 144.687 50.7533 145.009 50.7533C145.26 50.7533 145.51 50.6463 145.689 50.5036C146.047 50.2895 146.298 49.8613 146.262 49.4332C146.155 48.8266 145.904 48.22 145.51 47.7562L140.498 40.7271V40.7271ZM151.239 44.6877L154.497 42.1187C154.855 42.5468 155.321 42.868 155.822 43.0464C156.538 43.2605 157.29 43.1177 157.899 42.6539C158.328 42.3684 158.686 41.976 158.83 41.4764C159.045 40.8342 158.686 40.1206 158.042 39.9065C157.935 39.8708 157.827 39.8351 157.72 39.8351C157.29 39.7995 156.538 39.9779 155.428 40.4417C153.602 41.191 152.17 41.4764 151.096 41.3694C150.058 41.2624 149.091 40.7271 148.518 39.8351C148.088 39.2286 147.873 38.515 147.838 37.8014C147.838 36.9807 148.052 36.1601 148.518 35.4821C149.198 34.5188 150.022 33.6981 151.024 33.0559C152.528 32.0211 153.853 31.5216 154.999 31.5216C156.144 31.5216 157.218 32.0568 158.221 33.1629L154.999 35.6962C154.354 34.8756 153.137 34.6972 152.313 35.3394L152.206 35.4464C151.848 35.6605 151.597 35.9817 151.454 36.3741C151.347 36.6596 151.418 36.9807 151.597 37.2305C151.74 37.4089 151.955 37.5516 152.206 37.5516C152.492 37.5873 152.994 37.4446 153.71 37.1234C155.5 36.3741 156.86 35.946 157.791 35.8033C158.579 35.6605 159.403 35.7319 160.154 36.053C160.835 36.3385 161.408 36.838 161.801 37.4446C162.303 38.1582 162.589 39.0145 162.625 39.9065C162.661 40.8342 162.41 41.7262 161.909 42.5112C161.264 43.4745 160.441 44.2952 159.474 44.9374C157.505 46.2933 155.894 46.8642 154.605 46.6501C153.208 46.436 152.063 45.7224 151.239 44.6877V44.6877Z" fill="#1F2A3F"/>
</g>
<defs>
<clipPath id="clip0">
<rect width="198" height="92" fill="white"/>
</clipPath>
</defs>
</svg>
